<svg width="65" height="65" viewBox="0 0 65 65" fill="none" xmlns="http://www.w3.org/2000/svg">
<path fill-rule="evenodd" clip-rule="evenodd" d="M56.9517 33.095C55.9874 38.7943 49.8558 41.7176 46.168 46.1895C42.7233 50.3667 41.4084 57.3353 36.0778 58.4071C30.6919 59.4901 26.9905 52.8311 21.7812 51.0931C16.566 49.3532 9.59701 52.4074 5.91934 48.3456C2.27539 44.321 4.93009 37.9488 4.98162 32.5386C5.03322 27.12 3.33651 21.3286 6.22044 16.7279C9.18748 11.9947 14.7162 9.23697 20.2358 8.20395C25.3955 7.23828 30.2128 9.94211 35.2856 11.2882C40.8108 12.7543 47.1885 12.3796 51.2044 16.4216C55.4643 20.7091 57.9563 27.1571 56.9517 33.095Z" fill="#5DBD6D"/>
<path fill-rule="evenodd" clip-rule="evenodd" d="M61.3731 33.095C60.4088 38.7943 54.2772 41.7176 50.5894 46.1895C47.1447 50.3667 45.8298 57.3353 40.4992 58.4071C35.1133 59.4901 31.4119 52.8311 26.2026 51.0931C20.9874 49.3532 14.0184 52.4074 10.3407 48.3456C6.69678 44.321 9.35148 37.9488 9.403 32.5386C9.45461 27.12 7.7579 21.3286 10.6418 16.7279C13.6089 11.9947 19.1376 9.23697 24.6572 8.20395C29.8168 7.23828 34.6342 9.94211 39.707 11.2882C45.2322 12.7543 51.6099 12.3796 55.6258 16.4216C59.8857 20.7091 62.3777 27.1571 61.3731 33.095Z" stroke="#2A2A2A" stroke-width="1.5"/>
<path d="M35.0407 25.2598V39.8053H32.4058V27.8238H32.3205L28.9185 29.9971V27.5823L32.5336 25.2598H35.0407Z" fill="white"/>
</svg>
