<svg width="65" height="65" viewBox="0 0 65 65" fill="none" xmlns="http://www.w3.org/2000/svg">
<path fill-rule="evenodd" clip-rule="evenodd" d="M43.6413 49.9847C38.5423 53.4416 36.2562 62.3249 30.1105 61.8993C23.8398 61.465 22.2689 52.6539 17.8359 48.1975C14.4304 44.7739 9.82182 42.9414 7.21132 38.8789C3.92822 33.7695 0.291921 28.1983 1.11913 22.1817C1.99732 15.7941 5.76602 9.14666 11.6588 6.52996C17.3933 3.98356 23.5137 9.36526 29.7875 9.45156C35.8509 9.53486 42.4365 3.49036 47.3669 7.02056C52.2964 10.5502 48.5152 18.7977 50.7254 24.4434C53.1501 30.637 62.5033 34.7346 60.7256 41.1439C58.9689 47.4777 49.0819 46.2963 43.6413 49.9847Z" fill="#5DBD6D"/>
<path fill-rule="evenodd" clip-rule="evenodd" d="M46.4109 48.1383C41.3118 51.5952 39.0257 60.4785 32.8801 60.0529C26.6093 59.6185 25.0384 50.8074 20.6055 46.351C17.1999 42.9275 12.5913 41.0949 9.98095 37.0324C6.69785 31.9231 3.06148 26.3519 3.88865 20.3352C4.76685 13.9477 8.53565 7.30015 14.4285 4.68355C20.1629 2.13715 26.2833 7.51885 32.5571 7.60505C38.6205 7.68835 45.2061 1.64385 50.1365 5.17415C55.0661 8.70375 51.2848 16.9513 53.4949 22.597C55.9196 28.7906 65.2729 32.8881 63.4953 39.2975C61.7385 45.6313 51.8514 44.4499 46.4109 48.1383Z" stroke="#2A2A2A" stroke-width="1.5"/>
<path d="M26.407 37.3727V35.4693L31.4567 30.519C32.1764 29.7898 32.7186 29.1696 33.0832 28.6582C33.4477 28.1468 33.63 27.5881 33.63 26.9821C33.63 26.2955 33.4004 25.7557 32.9411 25.3628C32.4818 24.965 31.9065 24.7662 31.2153 24.7662C30.4908 24.7662 29.9108 24.984 29.4752 25.4196C29.0443 25.8504 28.8289 26.4376 28.8289 27.1809H26.3218C26.3218 26.2576 26.5325 25.4551 26.9539 24.7733C27.3753 24.0914 27.9553 23.5635 28.6939 23.1895C29.4373 22.8154 30.2896 22.6284 31.2508 22.6284C32.2261 22.6284 33.0808 22.8107 33.8147 23.1753C34.5533 23.5398 35.1286 24.0394 35.5405 24.6738C35.9525 25.3083 36.1584 26.0327 36.1584 26.8471C36.1584 27.3916 36.0543 27.9267 35.8459 28.4522C35.6376 28.9778 35.2707 29.5626 34.7451 30.2065C34.2242 30.8457 33.4927 31.6175 32.5505 32.5218L30.0434 35.0716V35.171H36.3786V37.3727H26.407Z" fill="white"/>
</svg>
