<svg width="65" height="65" viewBox="0 0 65 65" fill="none" xmlns="http://www.w3.org/2000/svg">
<path fill-rule="evenodd" clip-rule="evenodd" d="M38.5644 12.0819C43.8212 14.1239 51.2951 12.0394 54.3947 16.7507C57.481 21.4417 52.2877 27.4435 52.3651 33.0582C52.4552 39.6002 58.0596 46.321 54.8811 52.0397C51.7185 57.7298 43.9053 58.7118 37.4905 59.8205C31.4348 60.8672 25.0512 60.9467 19.5839 58.1403C14.358 55.4577 11.3322 50.1325 8.54443 44.962C5.90933 40.0747 3.60257 34.8779 4.05769 29.3442C4.51134 23.8284 7.49683 18.9841 11.0312 14.7253C14.6049 10.4192 18.6624 5.56893 24.2326 5.03416C29.6649 4.51263 33.4776 10.1059 38.5644 12.0819Z" fill="#5DBD6D"/>
<path fill-rule="evenodd" clip-rule="evenodd" d="M43.1748 12.0819C48.4316 14.1239 55.9055 12.0394 59.0051 16.7507C62.0913 21.4417 56.898 27.4435 56.9754 33.0582C57.0656 39.6002 62.6699 46.321 59.4915 52.0397C56.3289 57.7298 48.5157 58.7118 42.1008 59.8205C36.0452 60.8672 29.6615 60.9467 24.1943 58.1403C18.9684 55.4577 15.9426 50.1325 13.1547 44.962C10.5196 40.0747 8.21294 34.8779 8.66804 29.3442C9.12174 23.8284 12.1071 18.9841 15.6416 14.7253C19.2152 10.4192 23.2728 5.56893 28.843 5.03416C34.2752 4.51263 38.0879 10.1059 43.1748 12.0819Z" stroke="#2A2A2A" stroke-width="1.5"/>
<path d="M33.8294 42.6987C32.8067 42.6987 31.8976 42.5235 31.1022 42.1731C30.3114 41.8227 29.6841 41.335 29.2201 40.71C28.7608 40.085 28.5193 39.363 28.4956 38.5438H31.1661C31.1992 39.1357 31.4667 39.6092 31.9686 39.9643C32.4753 40.3147 33.0932 40.4899 33.8223 40.4899C34.5989 40.4899 35.2381 40.291 35.7399 39.8933C36.2418 39.4908 36.4904 38.9676 36.4857 38.3237C36.4904 37.6655 36.2324 37.1281 35.7115 36.7114C35.1954 36.2948 34.4781 36.0864 33.5596 36.0864H32.274V34.0552H33.5596C34.3124 34.0552 34.9256 33.8611 35.399 33.4728C35.8773 33.0846 36.114 32.5732 36.1093 31.9387C36.114 31.3279 35.908 30.8355 35.4914 30.4614C35.0794 30.0827 34.5349 29.8933 33.8578 29.8933C33.1855 29.8933 32.6031 30.0708 32.1107 30.4259C31.6183 30.781 31.3602 31.264 31.3365 31.8748H28.801C28.82 31.0604 29.0543 30.3454 29.5042 29.7299C29.954 29.1096 30.5577 28.6267 31.3152 28.281C32.0775 27.9307 32.9298 27.7555 33.8721 27.7555C34.8427 27.7555 35.6855 27.9378 36.4005 28.3024C37.1202 28.6622 37.6765 29.1475 38.0695 29.7583C38.4672 30.3691 38.6637 31.0438 38.659 31.7825C38.6637 32.5969 38.4246 33.2834 37.9417 33.8421C37.4587 34.3961 36.8219 34.7583 36.0311 34.9288V35.0424C37.0491 35.1892 37.8328 35.568 38.382 36.1788C38.9312 36.7896 39.2035 37.5495 39.1988 38.4586C39.2035 39.2777 38.9739 40.0069 38.5098 40.6461C38.0458 41.2853 37.409 41.7872 36.5993 42.1518C35.7897 42.5164 34.8664 42.6987 33.8294 42.6987Z" fill="white"/>
</svg>
