<svg width="192" height="194" viewBox="0 0 192 194" fill="none" xmlns="http://www.w3.org/2000/svg">
<path d="M19.1162 94.9795C20.3065 101.034 21.4968 107.089 22.7236 113.141C22.8987 113.961 23.8484 113.884 23.8194 113.052C23.8033 112.921 23.8183 112.744 23.8022 112.614C23.7732 111.781 22.6774 111.87 22.7064 112.703C22.7225 112.833 22.7075 113.01 22.7236 113.141C23.0888 113.111 23.4541 113.081 23.8194 113.052C22.6291 106.997 21.4388 100.942 20.212 94.8906C20.0369 94.07 18.9358 94.1154 19.1162 94.9795Z" fill="#A9A9AA"/>
<path d="M20.1541 95.1447C21.7716 94.6281 24.5992 93.8466 26.091 95.2986C27.4385 96.5828 27.5377 99.2925 27.9575 101.133C28.757 104.817 29.5566 108.501 30.35 112.141C30.5475 112.973 31.7426 112.887 31.5452 112.055C30.4029 106.792 29.582 101.239 28.0475 96.0493C26.8734 91.9914 22.3576 93.0718 19.6557 93.8888C18.9235 94.1193 19.422 95.3752 20.1541 95.1447Z" fill="#A9A9AA"/>
<path d="M28.786 69.8359C31.4742 83.6173 33.4323 97.5071 34.6602 111.505C34.7183 112.333 35.7684 112.24 35.7103 111.412C34.4873 97.4576 32.5244 83.5244 29.8361 69.743C29.673 68.925 28.6179 68.9745 28.786 69.8359Z" fill="#A9A9AA"/>
<path d="M30.3172 69.4156C31.8985 69.5585 33.7852 69.4133 35.2988 69.914C37.3257 70.5516 37.5477 74.5899 38.004 76.6267C38.8617 80.5721 39.6063 84.5262 40.3509 88.4803C41.8422 96.6969 43.0693 104.934 44.2965 113.171C44.4047 114 45.5367 113.913 45.4285 113.084C43.9985 103.584 42.5628 94.0407 40.7554 84.57C39.9105 80.1387 39.1353 75.658 37.9564 71.2965C36.9385 67.5838 33.1145 68.3629 30.4483 68.0831C29.7257 68.0946 29.5832 69.3398 30.3172 69.4156Z" fill="#A9A9AA"/>
<path d="M41.3599 60.6637C43.1282 60.1316 44.9689 59.8588 46.8556 59.9352C48.4332 59.9912 49.5787 60.2566 49.9071 62.1722C50.0311 62.8244 50.123 63.5231 50.2091 64.1781C50.7534 67.4446 51.2978 70.7111 51.88 73.9747C54.0206 86.4702 56.2313 98.9162 58.4477 111.406C58.5947 112.233 59.7322 112.146 59.5852 111.319C57.1988 97.8278 54.8182 84.3803 52.5077 70.8834C52.0207 68.0536 51.5395 65.2674 51.0905 62.4347C50.8861 61.1712 50.7197 59.9048 49.5868 59.1532C48.5413 58.4832 47.0568 58.5525 45.9514 58.5928C44.2279 58.5921 42.5446 58.8971 40.89 59.4204C40.1926 59.6501 40.6624 60.8934 41.3599 60.6637Z" fill="#A9A9AA"/>
<path d="M5.62536 61.4746C7.75758 80.546 12.185 99.3872 18.796 117.392C19.0806 118.204 20.0967 117.77 19.8121 116.958C13.2537 99.0808 8.84237 80.3701 6.72088 61.3856C6.61888 60.5591 5.52336 60.6481 5.62536 61.4746Z" fill="#A9A9AA"/>
<path d="M20.3985 117.662C30.3541 115.677 40.4151 114.208 50.5446 113.31C59.984 112.47 70.1499 111.15 79.4783 115.56C80.2613 115.914 80.7527 114.563 79.9635 114.157C70.9126 109.88 61.2638 110.791 52.04 111.613C41.3437 112.506 30.7219 114.022 20.2118 116.105C19.4048 116.277 19.5914 117.834 20.3985 117.662Z" fill="#A9A9AA"/>
<path d="M13.2783 83.2459C14.0085 83.9889 14.7387 84.7319 15.4688 85.4748C15.7598 85.7632 16.2972 85.63 16.4647 85.2596C18.9869 78.0516 21.4616 70.803 24.0261 63.5917C24.6948 61.7531 26.0967 63.1101 27.4215 63.4922C28.2607 63.7357 29.0932 63.5784 29.8565 63.2038C31.7831 62.2435 32.8614 59.9254 33.5506 57.9068C34.662 54.4712 35.5885 50.9169 36.6524 47.4406C36.918 46.4823 37.2258 45.5207 37.4969 44.6066C37.6427 44.0595 37.7602 42.935 38.1331 42.5031C39.2885 41.1599 42.8406 43.7234 44.0238 44.3401C45.9781 45.3397 48.9073 47.6866 51.1875 46.8311C52.899 46.2005 53.493 44.1005 53.793 42.3813C55.3116 34.6312 57.5917 27.5323 61.6345 20.9135C61.9544 20.3967 61.514 19.5855 60.8664 19.8614C58.7657 20.7914 56.9247 22.1016 55.2903 23.7069C54.7595 24.2409 55.6271 25.0619 56.1795 24.7045C57.7211 23.731 59.2995 22.71 60.8411 21.7365C60.5297 21.6282 60.176 21.5234 59.8646 21.4151C60.696 24.0228 61.5274 26.6305 62.3167 29.2417C62.5884 30.0668 63.768 29.6135 63.4963 28.7884C62.6648 26.1807 61.8334 23.573 61.0441 20.9618C60.9056 20.5272 60.3833 20.4361 60.0676 20.6403C58.5259 21.6138 56.9476 22.6348 55.4059 23.6083C55.7023 23.9408 55.9988 24.2733 56.2952 24.6058C57.7717 23.1026 59.4236 21.9863 61.361 21.1142C61.1068 20.7783 60.8471 20.3981 60.5929 20.0622C57.5097 25.1308 55.1187 30.6333 53.6254 36.5084C53.2194 38.0579 52.9031 39.6446 52.629 41.2279C52.4013 42.4952 52.1363 45.1926 50.6085 45.5852C48.8753 46.0392 46.3378 44.1062 44.7901 43.2963C43.2424 42.4864 41.726 41.5848 40.147 40.8667C38.3463 40.0775 37.3354 40.5169 36.7035 42.3079C35.5077 45.7504 34.6342 49.3896 33.5758 52.91C32.7939 55.5606 32.0367 60.8402 29.1456 61.9241C27.1919 62.6637 24.9459 59.6366 23.3603 61.6393C22.4362 62.7852 22.132 64.8169 21.6622 66.1932C20.9363 68.2595 20.2471 70.2781 19.5212 72.3443C18.1061 76.4291 16.6489 80.5173 15.2339 84.6021C15.5658 84.5304 15.8978 84.4586 16.2297 84.3869C15.4995 83.6439 14.7693 82.9009 14.0392 82.1579C13.4204 81.6288 12.6487 82.6284 13.2783 83.2459Z" fill="#A9A9AA"/>
<path d="M122.93 124.139C120.926 125.941 119.091 127.961 117.424 130.199C116.865 130.961 117.802 131.817 118.362 131.055C119.954 128.955 121.684 127.019 123.635 125.259C124.289 124.657 123.636 123.494 122.93 124.139Z" fill="#A9A9AA"/>
<path d="M123.075 124.936C123.898 127.105 124.732 129.227 125.555 131.396C125.85 132.22 127.11 131.645 126.814 130.82C125.991 128.651 125.157 126.53 124.334 124.36C123.996 123.531 122.737 124.107 123.075 124.936Z" fill="#A9A9AA"/>
<path d="M116.427 178.385C136.797 181.71 157.166 185.036 177.536 188.361C178.408 188.504 178.709 186.762 177.838 186.62C157.468 183.294 137.098 179.968 116.729 176.643C115.857 176.501 115.556 178.242 116.427 178.385Z" fill="#A9A9AA"/>
<path d="M122.632 126.376C120.065 142.64 117.461 158.898 114.886 175.208C114.73 176.08 115.832 176.255 115.988 175.382C118.555 159.118 121.159 142.86 123.734 126.55C123.853 125.672 122.759 125.452 122.632 126.376Z" fill="#A9A9AA"/>
<path d="M130.461 178.127C139.278 165.493 143.514 150.515 150.103 136.717C151.779 133.186 153.59 129.04 156.609 126.608C161.032 123.043 164.905 126.464 165.321 131.385C165.612 135.122 164.738 139.292 164.114 143.105C163.427 147.202 162.698 151.293 162.011 155.39C160.554 164.157 159.419 173.015 160.179 181.631C160.241 182.515 161.532 182.293 161.47 181.408C160.679 172.35 161.959 163.025 163.562 153.79C164.343 149.267 165.175 144.702 165.873 140.169C166.414 136.54 167.153 132.596 166.372 129.136C165.769 126.43 163.978 124.057 161.355 123.717C158.649 123.367 155.932 125.206 154.017 127.489C151.508 130.523 149.77 134.533 148.125 138.116C146.304 142.115 144.638 146.183 142.973 150.25C139.205 159.595 135.385 168.981 129.577 177.282C128.983 178.033 129.91 178.883 130.461 178.127Z" fill="#A9A9AA"/>
<path d="M146.445 120.728C145.901 119.224 148.076 117.57 148.758 119.241C149.419 120.81 147.256 122.019 146.477 120.782C146.018 120.08 144.893 120.976 145.352 121.678C146.035 122.755 147.469 123.036 148.679 122.349C150.039 121.581 150.555 119.865 149.979 118.505C149.403 117.145 147.895 116.607 146.588 117.53C145.431 118.372 144.755 120.018 145.213 121.314C145.469 122.138 146.743 121.558 146.445 120.728Z" fill="#A9A9AA"/>
<path d="M157.611 116.293C157.176 115.103 158.894 114.285 159.276 115.518C159.68 116.853 157.449 118 157.121 116.527C156.919 115.662 155.692 116.246 155.851 117.106C156.116 118.472 157.533 118.998 158.76 118.414C160.03 117.836 160.907 116.269 160.514 114.886C160.164 113.706 158.885 112.951 157.7 113.54C156.558 114.135 155.874 115.628 156.267 116.813C156.639 117.7 157.909 117.121 157.611 116.293Z" fill="#A9A9AA"/>
<path d="M155.333 105.563C155.238 104.412 156.567 103.394 157.218 104.417C157.87 105.44 156.595 106.614 155.696 106.104C154.99 105.717 154.336 107.069 155.042 107.456C157.084 108.557 159.678 105.621 158.343 103.521C157.767 102.556 156.601 102.26 155.54 102.867C154.576 103.437 153.868 104.634 154.006 105.79C154.112 106.694 155.428 106.515 155.333 105.563Z" fill="#A9A9AA"/>
<path d="M170.779 120.67C170.672 120.558 170.811 120.724 170.832 120.826C170.821 120.874 170.811 120.922 170.8 120.97C170.789 121.018 170.789 121.018 170.811 120.922L170.8 120.97C170.896 120.933 170.8 120.97 170.8 120.97C170.757 120.965 170.928 120.987 170.971 120.992C171.1 121.008 171.218 121.073 171.335 121.137C171.218 120.875 171.143 120.618 171.015 120.403C170.929 120.788 170.842 121.174 170.756 121.559C170.981 121.34 171.164 121.116 171.379 120.945C171.003 121.046 170.65 121.05 170.328 120.91C169.622 120.523 168.966 121.877 169.673 122.264C170.187 122.527 170.83 122.609 171.409 122.385C171.698 122.274 171.956 122.108 172.031 121.771C172.117 121.386 172.204 121 172.29 120.615C172.365 120.277 172.216 119.961 171.969 119.88C171.327 119.6 170.534 119.4 169.933 120.117C169.461 120.651 169.299 121.572 169.877 121.943C170.134 122.174 170.541 122.126 170.831 121.816C171.056 121.399 171.078 120.907 170.779 120.67Z" fill="#A9A9AA"/>
<path d="M25.4808 184.672C25.801 184.8 25.0966 188.002 25.4168 188.77C25.865 189.731 26.8896 190.307 27.9142 190.435C29.323 190.691 30.5397 190.051 31.6923 189.346C32.845 188.642 35.5985 186.209 36.431 188.898C36.6231 189.475 35.9827 190.883 36.1748 191.652C36.7512 194.213 39.1846 194.085 40.9135 192.74C41.5539 192.228 41.9381 191.588 42.4504 191.011C43.0907 189.475 44.0513 189.154 45.268 190.051C45.268 190.435 45.332 190.819 45.4601 191.139C46.1004 192.1 46.4206 192.74 47.7013 192.676C48.918 192.612 48.918 190.691 47.7013 190.755C47.7654 190.755 46.3566 187.874 45.5882 187.553C44.6917 187.169 43.6671 187.489 42.8346 188.002C42.2583 188.322 41.81 188.834 41.3618 189.282C40.4012 190.243 40.4653 191.652 38.9284 190.691C37.4556 189.795 38.6722 188.386 37.6477 187.105C35.9827 184.992 33.1652 186.145 31.3721 187.297C30.3476 187.938 27.7861 190.243 27.1458 186.849C27.0817 186.401 27.466 185.696 27.466 185.248C27.466 184.224 27.2738 183.647 26.3773 183.199C25.3528 182.431 24.3922 184.095 25.4808 184.672Z" fill="#282828"/>
<path d="M139.339 22.1084C134.026 19.1805 131.748 11.7524 135.11 6.49308C138.526 1.12532 146.822 0.149371 151.647 4.10741C156.581 8.22812 156.635 16.6864 151.918 20.9698C147.038 25.47 138.851 24.2772 134.839 19.2889C134.188 18.4757 133.05 19.6143 133.7 20.4276C137.442 24.982 144.111 26.6086 149.587 24.3314C154.9 22.1084 157.665 16.3611 156.961 10.7764C156.256 5.02914 151.972 0.745784 146.225 0.0951467C140.749 -0.55549 134.893 2.1555 132.833 7.46904C130.556 13.3248 133.104 20.4276 138.58 23.4096C139.448 24.0061 140.261 22.5964 139.339 22.1084Z" fill="#353434"/>
<path d="M162.871 32.0848C160.594 27.8556 166.45 23.1927 169.377 27.7472C171.98 31.7594 165.582 34.7957 163.522 31.0546C163.034 30.1328 161.624 30.9461 162.112 31.8679C163.413 34.2536 166.45 34.9042 168.835 33.874C171.655 32.6812 172.36 29.428 170.787 26.9339C169.161 24.3313 165.799 23.3012 163.196 25.1446C160.757 26.8797 159.997 30.2955 161.407 32.9523C162.004 33.8198 163.413 33.0065 162.871 32.0848Z" fill="#353434"/>
</svg>
